<svg xmlns="http://www.w3.org/2000/svg" width="520" height="640" viewBox="0 0 520 640">
  <defs>
    <linearGradient id="hair" x1="150" y1="54" x2="370" y2="530" gradientUnits="userSpaceOnUse">
      <stop offset="0" stop-color="#aee8ff"/>
      <stop offset=".48" stop-color="#62bde6"/>
      <stop offset="1" stop-color="#2f6f9f"/>
    </linearGradient>
    <linearGradient id="hoodie" x1="116" y1="398" x2="408" y2="624" gradientUnits="userSpaceOnUse">
      <stop offset="0" stop-color="#dff7f8"/>
      <stop offset=".62" stop-color="#b9e5e8"/>
      <stop offset="1" stop-color="#8fc8d0"/>
    </linearGradient>
    <linearGradient id="skirt" x1="150" y1="548" x2="370" y2="638" gradientUnits="userSpaceOnUse">
      <stop offset="0" stop-color="#566177"/>
      <stop offset="1" stop-color="#2f3548"/>
    </linearGradient>
    <linearGradient id="accent" x1="335" y1="122" x2="414" y2="188" gradientUnits="userSpaceOnUse">
      <stop offset="0" stop-color="#ff6c78"/>
      <stop offset="1" stop-color="#c92042"/>
    </linearGradient>
  </defs>
  <ellipse cx="260" cy="604" rx="150" ry="24" fill="#000" opacity=".23"/>
  <path d="M136 238c-32-110 24-184 126-184 104 0 164 76 128 194l-32 222c-20 66-70 100-98 100-30 0-82-34-100-102l-24-230z" fill="url(#hair)"/>
  <path d="M390 142c30 4 52 28 56 58-34 4-68-10-92-36 8-14 20-22 36-22z" fill="url(#accent)"/>
  <path d="M384 150l28-30 6 52" fill="#f8fbff" opacity=".8"/>
  <path d="M178 430c-42 38-62 108-66 194h300c-5-82-26-150-66-194-52 28-116 30-168 0z" fill="url(#hoodie)"/>
  <path d="M198 432c16 92 42 130 64 130 24 0 54-40 70-132-42 24-92 26-134 2z" fill="#fffdf8"/>
  <path d="M218 448l44 138 46-138 30 176H186l32-176z" fill="#fffdf8"/>
  <path d="M218 450l88 118M306 450l-88 118" stroke="#252936" stroke-width="10" stroke-linecap="round" fill="none"/>
  <path d="M164 544h198l34 80H126l38-80z" fill="url(#skirt)"/>
  <path d="M164 544l-18 80M204 544l-8 80M246 544l-2 80M286 544l8 80M326 544l18 80" stroke="#222736" stroke-width="5" opacity=".45"/>
  <path d="M166 432c-32 38-46 106-50 192h74c2-70 14-130 36-178l-60-14z" fill="url(#hoodie)"/>
  <path d="M356 430c34 38 50 108 54 194h-78c0-72-12-132-34-178l58-16z" fill="url(#hoodie)"/>
  <path d="M178 438l48 8M346 436l-48 10" stroke="#e9ffff" stroke-width="10" stroke-linecap="round" opacity=".75"/>
  <path d="M256 424v200" stroke="#6e9da7" stroke-width="5" opacity=".65"/>
  <path d="M154 252c4-86 42-140 108-140 68 0 106 54 110 140 6 116-44 202-110 202-64 0-114-86-108-202z" fill="#f3c6b8"/>
  <path d="M150 262c-8-64 16-122 72-150 18 44 62 78 136 92-24-74-78-116-138-106-68 12-106 70-70 164z" fill="url(#hair)"/>
  <path d="M174 172c-24 58-20 142-4 204-30-40-44-110-36-166l40-38z" fill="url(#hair)"/>
  <path d="M342 184c4 74-6 136-30 188 42-34 66-112 52-164l-22-24z" fill="url(#hair)"/>
  <path d="M130 286c-24 2-28 54 8 68 4-24 0-48-8-68z" fill="#e8ad9e"/>
  <path d="M390 286c24 2 28 54-8 68-4-24 0-48 8-68z" fill="#e8ad9e"/>
  <path d="M204 274c20-14 48-14 68 0" stroke="#1e425e" stroke-width="8" stroke-linecap="round" fill="none"/>
  <path d="M292 274c20-14 48-14 68 0" stroke="#1e425e" stroke-width="8" stroke-linecap="round" fill="none"/>
  <path d="M220 294l-18-10M250 292l18-10M306 292l-18-10M336 294l18-10" stroke="#1e425e" stroke-width="5" stroke-linecap="round"/>
  <circle cx="238" cy="308" r="14" fill="#178ed1"/>
  <circle cx="324" cy="308" r="14" fill="#178ed1"/>
  <circle cx="238" cy="308" r="7" fill="#0b3d63"/>
  <circle cx="324" cy="308" r="7" fill="#0b3d63"/>
  <circle cx="233" cy="302" r="4" fill="#fff"/>
  <circle cx="319" cy="302" r="4" fill="#fff"/>
  <ellipse cx="204" cy="346" rx="17" ry="8" fill="#e98ca0" opacity=".42"/>
  <ellipse cx="342" cy="346" rx="17" ry="8" fill="#e98ca0" opacity=".42"/>
  <path d="M256 316c-4 22-10 38-20 50 12 6 32 6 44 0" stroke="#d59a90" stroke-width="7" stroke-linecap="round" stroke-linejoin="round" fill="none"/>
  <ellipse cx="262" cy="392" rx="28" ry="21" fill="#793643"/>
  <path d="M242 399c12 10 28 10 42 0" stroke="#f0a5a8" stroke-width="6" stroke-linecap="round" fill="none"/>
  <path d="M122 594c-20 0-30 16-20 28 12 12 34 6 38-12l-18-16z" fill="#f3c6b8"/>
  <path d="M404 590c20 0 30 18 18 30-14 12-36 4-40-14l22-16z" fill="#f3c6b8"/>
</svg>
